HIERARCHY
ROOT hip
{
  OFFSET 0 0 0
  CHANNELS 6 Xposition Yposition Zposition Zrotation Yrotation Xrotation
  JOINT abdomen
  {
    OFFSET 0 20.6881 -0.73152
    CHANNELS 3 Zrotation Xrotation Yrotation
    JOINT chest
    {
      OFFSET 0 11.7043 -0.48768
      CHANNELS 3 Zrotation Xrotation Yrotation
      JOINT neck
      {
        OFFSET 0 22.1894 -2.19456
        CHANNELS 3 Zrotation Xrotation Yrotation
        JOINT head
        {
          OFFSET -0.24384 7.07133 1.2192
          CHANNELS 3 Zrotation Xrotation Yrotation
          JOINT leftEye
          {
            OFFSET 4.14528 8.04674 8.04672
            CHANNELS 3 Zrotation Xrotation Yrotation
            End Site
            {
              OFFSET 1 0 0
            }
          }
          JOINT rightEye
          {
            OFFSET -3.6576 8.04674 8.04672
            CHANNELS 3 Zrotation Xrotation Yrotation
            End Site
            {
              OFFSET 1 0 0
            }
          }
        }
      }
      JOINT rCollar
      {
        OFFSET -2.68224 19.2634 -4.8768
        CHANNELS 3 Zrotation Xrotation Yrotation
        JOINT rShldr
        {
          OFFSET -8.77824 -1.95073 1.46304
          CHANNELS 3 Zrotation Xrotation Yrotation
          JOINT rForeArm
          {
            OFFSET -28.1742 -1.7115 0.48768
            CHANNELS 3 Zrotation Xrotation Yrotation
            JOINT rHand
            {
              OFFSET -22.5879 0.773209 7.07136
              CHANNELS 3 Zrotation Xrotation Yrotation
              JOINT rThumb1
              {
                OFFSET -1.2192 -0.487915 3.41376
                CHANNELS 3 Zrotation Xrotation Yrotation
                JOINT rThumb2
                {
                  OFFSET -3.37035 -0.52449 3.41376
                  CHANNELS 3 Zrotation Xrotation Yrotation
                  End Site
                  {
                    OFFSET -1.78271 -1.18214 1.43049
                  }
                }
              }
              JOINT rIndex1
              {
                OFFSET -7.75947 0.938293 5.60832
                CHANNELS 3 Zrotation Xrotation Yrotation
                JOINT rIndex2
                {
                  OFFSET -2.54057 -0.884171 1.56538
                  CHANNELS 3 Zrotation Xrotation Yrotation
                  End Site
                  {
                    OFFSET -1.62519 -0.234802 1.16502
                  }
                }
              }
              JOINT rMid1
              {
                OFFSET -8.24714 1.18213 3.41376
                CHANNELS 3 Zrotation Xrotation Yrotation
                JOINT rMid2
                {
                  OFFSET -3.10165 -0.590103 1.0647
                  CHANNELS 3 Zrotation Xrotation Yrotation
                  End Site
                  {
                    OFFSET -2.48547 -0.328903 0.83742
                  }
                }
              }
              JOINT rRing1
              {
                OFFSET -8.82822 0.546677 1.51678
                CHANNELS 3 Zrotation Xrotation Yrotation
                JOINT rRing2
                {
                  OFFSET -2.60934 -0.819778 -0.0198488
                  CHANNELS 3 Zrotation Xrotation Yrotation
                  End Site
                  {
                    OFFSET -2.33842 -0.294052 0.168128
                  }
                }
              }
              JOINT rPinky1
              {
                OFFSET -8.27202 -0.0477905 -0.4584
                CHANNELS 3 Zrotation Xrotation Yrotation
                JOINT rPinky2
                {
                  OFFSET -1.82734 -0.647385 -0.700984
                  CHANNELS 3 Zrotation Xrotation Yrotation
                  End Site
                  {
                    OFFSET -1.69225 -0.51767 -0.607171
                  }
                }
              }
            }
          }
        }
      }
      JOINT lCollar
      {
        OFFSET 2.68224 19.2634 -4.8768
        CHANNELS 3 Zrotation Xrotation Yrotation
        JOINT lShldr
        {
          OFFSET 8.77824 -1.95073 1.46304
          CHANNELS 3 Zrotation Xrotation Yrotation
          JOINT lForeArm
          {
            OFFSET 28.1742 -1.7115 0.48768
            CHANNELS 3 Zrotation Xrotation Yrotation
            JOINT lHand
            {
              OFFSET 22.5879 0.773209 7.07136
              CHANNELS 3 Zrotation Xrotation Yrotation
              JOINT lThumb1
              {
                OFFSET 1.2192 -0.487915 3.41376
                CHANNELS 3 Zrotation Xrotation Yrotation
                JOINT lThumb2
                {
                  OFFSET 3.37035 -0.52449 3.41376
                  CHANNELS 3 Zrotation Xrotation Yrotation
                  End Site
                  {
                    OFFSET 1.78271 -1.18214 1.43049
                  }
                }
              }
              JOINT lIndex1
              {
                OFFSET 7.75947 0.938293 5.60832
                CHANNELS 3 Zrotation Xrotation Yrotation
                JOINT lIndex2
                {
                  OFFSET 2.54057 -0.884171 1.56538
                  CHANNELS 3 Zrotation Xrotation Yrotation
                  End Site
                  {
                    OFFSET 1.62519 -0.234802 1.16502
                  }
                }
              }
              JOINT lMid1
              {
                OFFSET 8.24714 1.18213 3.41376
                CHANNELS 3 Zrotation Xrotation Yrotation
                JOINT lMid2
                {
                  OFFSET 3.10165 -0.590103 1.0647
                  CHANNELS 3 Zrotation Xrotation Yrotation
                  End Site
                  {
                    OFFSET 2.48547 -0.328903 0.83742
                  }
                }
              }
              JOINT lRing1
              {
                OFFSET 8.82822 0.546677 1.51678
                CHANNELS 3 Zrotation Xrotation Yrotation
                JOINT lRing2
                {
                  OFFSET 2.60934 -0.819778 -0.0198488
                  CHANNELS 3 Zrotation Xrotation Yrotation
                  End Site
                  {
                    OFFSET 2.33842 -0.294052 0.168128
                  }
                }
              }
              JOINT lPinky1
              {
                OFFSET 8.27202 -0.0477905 -0.4584
                CHANNELS 3 Zrotation Xrotation Yrotation
                JOINT lPinky2
                {
                  OFFSET 1.82734 -0.647385 -0.700984
                  CHANNELS 3 Zrotation Xrotation Yrotation
                  End Site
                  {
                    OFFSET 1.69225 -0.51767 -0.607171
                  }
                }
              }
            }
          }
        }
      }
    }
  }
  JOINT rButtock
  {
    OFFSET -8.77824 4.35084 1.2192
    CHANNELS 3 Zrotation Xrotation Yrotation
    JOINT rThigh
    {
      OFFSET 0 -1.70687 -2.19456
      CHANNELS 3 Zrotation Xrotation Yrotation
      JOINT rShin
      {
        OFFSET 0 -36.8199 0.73152
        CHANNELS 3 Zrotation Xrotation Yrotation
        JOINT rFoot
        {
          OFFSET 0.73152 -45.1104 -5.12064
          CHANNELS 3 Zrotation Xrotation Yrotation
          End Site
          {
            OFFSET -1.1221 -3.69964 12.103
          }
        }
      }
    }
  }
  JOINT lButtock
  {
    OFFSET 8.77824 4.35084 1.2192
    CHANNELS 3 Zrotation Xrotation Yrotation
    JOINT lThigh
    {
      OFFSET 0 -1.70687 -2.19456
      CHANNELS 3 Zrotation Xrotation Yrotation
      JOINT lShin
      {
        OFFSET 0 -36.8199 0.73152
        CHANNELS 3 Zrotation Xrotation Yrotation
        JOINT lFoot
        {
          OFFSET -0.73152 -45.1104 -5.12064
          CHANNELS 3 Zrotation Xrotation Yrotation
          End Site
          {
            OFFSET 1.1221 -3.69964 12.103
          }
        }
      }
    }
  }
}
MOTION
Frames:	7
Frame Time:	0.00833333
75.2663 87.3981 22.8778 -6.83 18.2876 2.8984 7.98149 2.40952 7.93675 0.688593 -0.342588 2.33242 -13.0674 15.7314 -16.0289 26.8119 -10.4111 -28.5189 -0.0 0.0 0.0 -0.0 0.0 0.0 1.72e-13 -1.39901e-13 9.23716e-13 81.3948 1.86302 -4.20527 -11.9734 -5.43059 21.5575 -0.223925 -14.014 -2.00303 -3.50997e-09 9.29126e-09 2.86271e-09 -6.09771e-09 1.61094e-08 4.93045e-09 -3.50997e-09 9.29126e-09 2.86271e-09 7.73091 5.47488 0.417314 -3.50997e-09 9.29126e-09 2.86271e-09 2.90554 0.965183 0.102902 -3.50996e-09 9.29126e-09 2.86271e-09 10.2786 0.731801 0.0259123 -3.50997e-09 9.29126e-09 2.86272e-09 2.22167 -0.733487 -0.20892 1.72062e-13 -1.39888e-13 9.23485e-13 -79.4923 -7.92154 9.5096 11.5878 -5.16882 -20.8059 0.330514 16.3857 -2.36587 -3.64094e-09 -2.84997e-09 3.05377e-09 -6.23423e-09 -4.95486e-09 5.33647e-09 -3.64096e-09 -2.84996e-09 3.05379e-09 -7.73091 5.47488 -0.417314 -3.64094e-09 -2.84996e-09 3.05378e-09 -2.90554 0.965183 -0.102902 -3.64095e-09 -2.84996e-09 3.05377e-09 -10.2786 0.731801 -0.0259123 -3.64094e-09 -2.84996e-09 3.05376e-09 -2.22167 -0.733487 0.20892 -2.03217e-16 0.0 -3.88251e-19 12.6498 7.17116 -4.71358 0.0605638 6.43598 0.571739 -1.05077 -7.96535 -3.9318 2.03217e-16 0.0 3.88251e-19 11.9645 -38.1941 -1.06824 0.129219 26.039 -0.684933 0.509609 -8.37473 -0.0877194
75.4781 87.3564 23.7112 -6.7176 18.0459 3.1615 8.04421 2.17295 7.95942 0.665462 -0.191399 2.33027 -13.0753 15.9423 -15.9234 26.4873 -10.9474 -28.2596 -0.0 0.0 0.0 -0.0 0.0 0.0 1.34769e-13 -1.83683e-13 1.11657e-12 81.6191 1.87711 -3.91511 -11.8305 -5.33049 21.2824 -0.155491 -11.1692 -1.59012 -3.17676e-09 1.01582e-08 3.58255e-09 -5.53487e-09 1.76235e-08 6.18698e-09 -3.17676e-09 1.01582e-08 3.58255e-09 7.73091 5.47488 0.417314 -3.17677e-09 1.01582e-08 3.58255e-09 2.90554 0.965183 0.102902 -3.17676e-09 1.01582e-08 3.58255e-09 10.2786 0.731801 0.0259123 -3.17677e-09 1.01582e-08 3.58256e-09 2.22167 -0.733487 -0.20892 1.34841e-13 -1.8367e-13 1.11633e-12 -79.6386 -10.0799 9.4882 11.2742 -4.95244 -20.2137 0.436108 18.4409 -2.68605 -3.86876e-09 -4.11045e-09 3.27628e-09 -6.62337e-09 -7.13743e-09 5.72746e-09 -3.86877e-09 -4.11044e-09 3.27629e-09 -7.73091 5.47488 -0.417314 -3.86876e-09 -4.11045e-09 3.27628e-09 -2.90554 0.965183 -0.102902 -3.86876e-09 -4.11045e-09 3.27628e-09 -10.2786 0.731801 -0.0259123 -3.86875e-09 -4.11045e-09 3.27626e-09 -2.22167 -0.733487 0.20892 -2.03217e-16 0.0 -3.88251e-19 12.6024 7.53387 -4.51912 0.0604748 6.44304 0.574018 -1.04328 -7.98541 -3.79202 2.03217e-16 0.0 3.88251e-19 12.0023 -38.7305 -0.855266 0.123293 25.4057 -0.679397 0.396546 -9.1258 -0.507277
75.6386 87.3264 24.5571 -6.8444 17.7524 3.2921 8.08719 2.0308 7.93741 0.754314 -0.0565759 2.31904 -13.2139 15.9476 -15.8386 26.183 -11.1412 -28.0756 -0.0 0.0 0.0 -0.0 0.0 0.0 1.44854e-13 -2.10822e-13 8.69693e-13 81.7832 2.05867 -3.54867 -11.7091 -5.24674 21.0483 -0.111421 -9.10692 -1.29377 -2.63496e-09 7.91042e-09 2.96906e-09 -4.5927e-09 1.37285e-08 5.12925e-09 -2.63496e-09 7.91042e-09 2.96906e-09 7.73091 5.47488 0.417314 -2.63496e-09 7.91042e-09 2.96907e-09 2.90554 0.965183 0.102902 -2.63496e-09 7.91042e-09 2.96906e-09 10.2786 0.731801 0.0259123 -2.63497e-09 7.91042e-09 2.96907e-09 2.22167 -0.733487 -0.20892 1.44901e-13 -2.10812e-13 8.69449e-13 -79.8577 -12.0631 9.55521 11.0542 -4.80455 -19.7983 0.534841 20.2585 -2.97406 -3.20571e-09 -3.40258e-09 2.39777e-09 -5.49454e-09 -5.90699e-09 4.19893e-09 -3.20572e-09 -3.40257e-09 2.39778e-09 -7.73091 5.47488 -0.417314 -3.20571e-09 -3.40257e-09 2.39777e-09 -2.90554 0.965183 -0.102902 -3.20571e-09 -3.40257e-09 2.39777e-09 -10.2786 0.731801 -0.0259123 -3.2057e-09 -3.40257e-09 2.39776e-09 -2.22167 -0.733487 0.20892 -2.03217e-16 0.0 -3.88251e-19 12.6389 8.01745 -4.25578 0.0607468 6.33294 0.574775 -1.02166 -7.8691 -3.65744 2.03217e-16 0.0 3.88251e-19 12.026 -39.1447 -1.07717 0.118256 24.9528 -0.679651 0.418461 -9.77938 -0.395817
75.8283 87.2649 25.4397 -6.8408 17.3126 3.4093 8.13901 1.93912 7.8769 0.916338 0.0833016 2.29902 -13.4318 15.8166 -15.755 25.8535 -11.1314 -27.9137 -0.0 0.0 0.0 -0.0 0.0 0.0 1.75759e-13 -2.24081e-13 3.45044e-13 81.8873 2.33082 -3.0901 -11.5891 -5.16483 20.817 -0.0739611 -7.4152 -1.05048 -1.84741e-09 3.59292e-09 1.49471e-09 -3.21413e-09 6.24022e-09 2.57924e-09 -1.84741e-09 3.59292e-09 1.4947e-09 7.73091 5.47488 0.417314 -1.84741e-09 3.59292e-09 1.49471e-09 2.90554 0.965183 0.102902 -1.8474e-09 3.59292e-09 1.49471e-09 10.2786 0.731801 0.0259123 -1.84742e-09 3.59292e-09 1.49472e-09 2.22167 -0.733487 -0.20892 1.75757e-13 -2.24079e-13 3.44817e-13 -80.1224 -14.0713 9.67747 10.8846 -4.69396 -19.4758 0.640403 22.0404 -3.26291 -1.90335e-09 -1.51968e-09 8.13447e-10 -3.27502e-09 -2.63861e-09 1.43921e-09 -1.90336e-09 -1.51968e-09 8.13454e-10 -7.73091 5.47488 -0.417314 -1.90335e-09 -1.51968e-09 8.13445e-10 -2.90554 0.965183 -0.102902 -1.90336e-09 -1.51968e-09 8.13441e-10 -10.2786 0.731801 -0.0259123 -1.90334e-09 -1.51968e-09 8.13429e-10 -2.22167 -0.733487 0.20892 -2.03217e-16 0.0 -3.88251e-19 12.7287 8.52483 -3.93943 0.0609316 6.24928 0.575246 -0.997044 -7.70121 -3.52971 2.03217e-16 0.0 3.88251e-19 12.0534 -39.488 -1.55744 0.1147 24.6807 -0.68337 0.539931 -10.4008 0.0605492
75.9582 87.1983 26.3603 -7.1288 16.9046 3.4419 8.17055 1.88597 7.81387 1.07577 0.187008 2.28 -13.6416 15.6449 -15.6792 25.4976 -11.0214 -27.7816 -0.0 0.0 0.0 -0.0 0.0 0.0 2.02077e-13 -2.27078e-13 -2.09724e-13 81.9893 2.63991 -2.62517 -11.4839 -5.09349 20.615 -0.0461739 -6.10182 -0.861516 -1.05341e-09 -9.0994e-10 -4.85788e-11 -1.82245e-09 -1.5709e-09 -9.12057e-11 -1.05341e-09 -9.09937e-10 -4.85863e-11 7.73091 5.47488 0.417314 -1.05341e-09 -9.0994e-10 -4.8581e-11 2.90554 0.965183 0.102902 -1.05341e-09 -9.09941e-10 -4.85765e-11 10.2786 0.731801 0.0259123 -1.05342e-09 -9.0994e-10 -4.85658e-11 2.22167 -0.733487 -0.20892 2.02028e-13 -2.27083e-13 -2.09931e-13 -80.3739 -15.51 9.86559 10.7832 -4.62979 -19.2809 0.720009 23.2852 -3.4692 -5.42103e-10 5.19872e-10 -8.55807e-10 -9.55076e-10 9.01366e-10 -1.46866e-09 -5.42116e-10 5.19876e-10 -8.558e-10 -7.73091 5.47488 -0.417314 -5.42103e-10 5.19875e-10 -8.55809e-10 -2.90554 0.965183 -0.102902 -5.42108e-10 5.19875e-10 -8.55813e-10 -10.2786 0.731801 -0.0259123 -5.42098e-10 5.19876e-10 -8.55824e-10 -2.22167 -0.733487 0.20892 -2.03217e-16 0.0 -3.88251e-19 12.7913 9.05083 -3.60236 0.0610708 6.18709 0.575661 -0.96908 -7.4836 -3.39747 2.03217e-16 0.0 3.88251e-19 12.0615 -39.7268 -2.03393 0.112085 24.5081 -0.688061 0.686881 -10.8808 0.573006
76.1943 87.1228 27.2645 -7.1616 16.6336 3.4509 8.15289 1.85945 7.78433 1.15672 0.213312 2.2718 -13.7565 15.5286 -15.6174 25.1153 -10.9157 -27.6868 -0.0 0.0 0.0 -0.0 0.0 0.0 1.98403e-13 -2.2343e-13 -5.46956e-13 82.1504 2.93222 -2.23974 -11.4073 -5.04154 20.4685 -0.0329509 -5.17441 -0.729219 -4.92283e-10 -3.71379e-09 -8.68851e-10 -8.40966e-10 -6.43442e-09 -1.51025e-09 -4.92282e-10 -3.71379e-09 -8.68861e-10 7.73091 5.47488 0.417314 -4.92284e-10 -3.71379e-09 -8.68854e-10 2.90554 0.965183 0.102902 -4.92283e-10 -3.71379e-09 -8.68849e-10 10.2786 0.731801 0.0259123 -4.92294e-10 -3.71379e-09 -8.68839e-10 2.22167 -0.733487 -0.20892 1.98335e-13 -2.23439e-13 -5.47155e-13 -80.563 -15.7857 10.1194 10.7675 -4.62104 -19.2488 0.72846 23.4928 -3.50226 2.97619e-10 1.69773e-09 -1.98909e-09 4.75013e-10 2.94656e-09 -3.44165e-09 2.97606e-10 1.69774e-09 -1.98908e-09 -7.73091 5.47488 -0.417314 2.97619e-10 1.69774e-09 -1.98909e-09 -2.90554 0.965183 -0.102902 2.97613e-10 1.69774e-09 -1.9891e-09 -10.2786 0.731801 -0.0259123 2.97623e-10 1.69774e-09 -1.98911e-09 -2.22167 -0.733487 0.20892 -2.03217e-16 0.0 -3.88251e-19 12.7476 9.59025 -3.27701 0.0612074 6.14139 0.57625 -0.937565 -7.21813 -3.24937 2.03217e-16 0.0 3.88251e-19 12.0355 -39.8312 -2.2394 0.109907 24.3535 -0.691264 0.770452 -11.1119 0.850023
76.5498 87.022 28.1189 -6.782 16.4068 3.4937 8.06465 1.86421 7.78751 1.11013 0.106936 2.27534 -13.7174 15.4817 -15.5767 24.663 -10.7675 -27.6568 -0.0 0.0 0.0 -0.0 0.0 0.0 1.45876e-13 -2.11819e-13 -5.71177e-13 82.4336 3.21857 -1.98911 -11.3641 -5.01222 20.3862 -0.0311292 -4.74815 -0.669287 -2.47118e-10 -4.08622e-09 -5.95695e-10 -4.16874e-10 -7.07941e-09 -1.03676e-09 -2.47117e-10 -4.08621e-09 -5.95705e-10 7.73091 5.47488 0.417314 -2.4712e-10 -4.08621e-09 -5.95698e-10 2.90554 0.965183 0.102902 -2.47117e-10 -4.08622e-09 -5.95694e-10 10.2786 0.731801 0.0259123 -2.47127e-10 -4.08621e-09 -5.95684e-10 2.22167 -0.733487 -0.20892 1.45833e-13 -2.11829e-13 -5.71384e-13 -80.7143 -13.9528 10.5085 10.9332 -4.72925 -19.5617 0.601985 21.7759 -3.21244 3.67938e-10 1.59302e-09 -2.37433e-09 5.92016e-10 2.76687e-09 -4.10938e-09 3.67925e-10 1.59302e-09 -2.37433e-09 -7.73091 5.47488 -0.417314 3.67938e-10 1.59302e-09 -2.37434e-09 -2.90554 0.965183 -0.102902 3.67932e-10 1.59302e-09 -2.37434e-09 -10.2786 0.731801 -0.0259123 3.67942e-10 1.59302e-09 -2.37435e-09 -2.22167 -0.733487 0.20892 -2.03217e-16 0.0 -3.88251e-19 12.5631 10.2377 -2.98669 0.0616666 5.93837 0.575574 -0.894167 -6.86442 -3.05426 2.03217e-16 0.0 3.88251e-19 11.9795 -39.7721 -1.99589 0.107601 24.1889 -0.69615 0.780795 -11.0475 0.880979
